<svg width="204" height="287" xmlns="http://www.w3.org/2000/svg" xmlns:xlink="http://www.w3.org/1999/xlink" overflow="hidden"><defs><clipPath id="clip0"><rect x="186" y="191" width="204" height="287"/></clipPath><clipPath id="clip1"><path d="M186.407 211.104 359.175 191.717 389.053 457.962 216.285 477.35Z" fill-rule="evenodd" clip-rule="evenodd"/></clipPath><clipPath id="clip2"><path d="M186.407 211.104 359.175 191.717 389.053 457.962 216.285 477.35Z" fill-rule="evenodd" clip-rule="evenodd"/></clipPath><clipPath id="clip3"><path d="M186.407 211.104 359.175 191.717 389.053 457.962 216.285 477.35Z" fill-rule="evenodd" clip-rule="evenodd"/></clipPath></defs><g clip-path="url(#clip0)" transform="translate(-186 -191)"><g clip-path="url(#clip1)"><g clip-path="url(#clip2)"><g clip-path="url(#clip3)"><path d="M376.993 384.58C377.138 385.874 376.744 386.977 375.971 388.016 370.301 395.613 364.656 403.206 357.499 409.548 353.144 413.4 349.653 418.033 346.359 422.81 345.766 423.668 345.416 424.692 344.866 425.585 343.992 427.007 344.384 428.196 345.259 429.467 346.757 431.645 348.797 433.392 350.259 435.526 351.958 437.977 353.81 440.317 355.805 442.533 359.748 447.002 363.71 451.469 368.26 455.346 369.479 456.353 370.476 457.602 371.189 459.014 371.375 459.26 371.326 459.611 371.08 459.798 371.021 459.842 370.954 459.875 370.882 459.893 370.598 459.993 370.118 460.063 369.954 459.907 366.522 456.648 363.094 453.386 359.729 450.071 356.097 446.502 352.678 442.723 349.489 438.753 348.508 437.539 347.946 437.549 346.283 438.268 344.508 439.026 342.833 440.001 341.298 441.17 335.812 445.292 330.081 448.977 323.424 451.011 321.084 451.724 318.893 452.927 316.553 453.627 311.675 455.106 306.75 456.014 301.544 455.747 298.408 455.587 295.25 455.406 292.097 455.312 289.97 455.255 287.927 454.466 286.313 453.08 285.75 452.611 285.739 451.677 286.401 451.358 293.33 448.077 298.678 442.658 304.603 438.014 307.764 435.536 310.689 432.718 314.503 431.124 315.813 430.577 317.087 430.003 318.489 429.849 322.494 429.399 326.483 428.859 330.542 429.6 333.631 430.166 336.777 430.427 339.901 430.786 340.24 430.817 340.578 430.71 340.837 430.49 341.365 429.954 340.821 429.596 340.485 429.265 336.741 425.534 332.614 422.262 328.431 419.04 325.512 416.799 322.471 414.713 319.569 412.447 314.993 408.835 309.948 405.966 304.862 403.179 301.928 401.579 299.011 399.975 296.224 398.13 295.008 397.329 293.783 397.559 292.984 398.717 292.255 399.705 291.63 400.766 291.12 401.883 289.816 404.949 288.523 408.029 287.422 411.172 285.82 415.742 283.373 419.708 279.755 422.948 277.664 424.818 276.156 427.294 273.683 428.771 270.972 430.388 268.365 432.204 265.562 433.625 260.095 436.424 254.305 438.457 248.49 440.427 246.518 441.096 244.739 440.6 242.923 440.024 242.806 439.987 242.814 439.431 242.835 439.119 242.872 438.943 242.98 438.791 243.134 438.699 246.188 436.949 248.826 434.661 251.356 432.234 251.559 432.037 252.02 432.106 252.364 432.054L252.442 432.124C252.242 432.574 252.139 433.11 251.826 433.46 250.793 434.624 249.689 435.728 248.601 436.844 248.237 437.217 248.233 437.477 248.662 437.541 248.989 437.592 249.427 437.652 249.656 437.486 253.183 434.936 256.299 431.992 258.347 428.076 258.466 427.75 258.541 427.409 258.571 427.062L260.032 423.992C259.827 422.968 259.455 421.939 260.143 420.947 263.734 415.756 266.986 410.322 271.135 405.491 274 402.149 277.575 399.489 281.6 397.707 283.803 396.714 286.014 395.733 288.529 394.609 284.752 392.07 280.927 390.354 277.009 388.822 274.402 387.799 271.906 386.457 269 386.341 268.132 386.309 267.335 386.159 266.437 386.437 262.581 387.682 258.506 388.097 254.478 387.655 253.955 387.585 253.426 387.576 252.901 387.627 247.431 388.224 242.571 386.423 237.778 384.041 232.723 381.552 228.174 378.148 224.361 374 221.385 370.763 218.34 367.598 215.784 364.016 212.915 359.987 209.099 356.821 205.717 353.258 205.113 352.622 204.353 352.124 203.794 351.455 203.12 350.658 202.533 349.794 202.04 348.875 201.812 348.45 204.076 347.875 205.428 348.123 205.944 348.215 206.453 348.346 206.95 348.515 217.755 352.2 228.75 355.388 239.212 359.956 245.472 362.684 251.591 365.816 256.628 370.675 259.41 373.353 262.363 375.852 265.208 378.467 268.517 381.506 272.159 384.148 276.579 385.817 284.964 388.995 293.024 392.97 300.649 397.687 302.743 398.982 304.805 400.339 306.989 401.482 316.704 406.565 325.272 413.3 333.851 420.011 334.401 420.44 334.982 420.825 335.54 421.23 336.038 420.653 335.728 420.198 335.436 419.758 333.491 416.83 331.612 413.856 329.568 411.001 327.635 408.283 325.854 405.46 324.231 402.546 321.997 398.573 319.527 394.727 317.231 390.78 314.935 386.833 312.644 382.88 310.999 378.592 310.63 377.634 309.913 376.67 308.582 377.554 305.635 377.195 302.697 376.73 299.733 376.494 291.702 375.852 284.256 373.288 277.422 369.211 272.278 366.122 267.765 362.086 264.121 357.318 262.836 355.649 261.63 353.937 260.394 352.214 259.672 351.219 258.812 350.285 258.284 349.193 255.75 343.974 252.712 339.063 249.441 334.285 248.908 333.499 249.524 332.515 250.446 332.426 252.041 332.28 253.639 332.665 254.993 333.521 260.134 336.664 265.741 338.676 271.322 340.799 274.811 342.125 277.708 344.475 280.751 346.525 287.99 351.404 293.625 357.88 298.531 365.032 299.918 367.05 301.502 368.923 302.922 370.932 303.762 372.122 304.863 372.95 306.065 373.694 307.266 374.438 308.226 374.611 308.328 374.107 308.485 373.326 307.926 372.834 307.67 372.21 304.881 365.403 302.078 358.598 299.327 351.776 297.371 346.89 295.639 341.925 294.56 336.749 294.169 334.87 293.483 333.051 292.93 331.207 291.521 326.507 290.046 321.82 289.374 316.933 289.277 316.243 289.17 315.492 288.828 314.908 287.719 313.004 287.585 310.907 287.367 308.808 287.196 307.138 287.164 307.155 285.015 306.929 284.5 306.844 283.989 306.732 283.485 306.594 281.056 306.075 278.77 306.239 276.269 306.84 272.338 307.791 268.439 308.71 264.69 310.263 263.734 310.652 262.65 310.774 261.611 310.933 258.126 311.417 254.624 311.782 251.147 312.324 247.486 312.892 243.74 312.459 240.305 311.071 237.534 309.99 234.677 309.123 231.849 308.19 228.046 306.927 226.196 303.617 223.986 300.711 223.576 300.171 224.087 299.384 224.581 298.839 225.215 298.137 226.052 297.947 226.936 297.817 235.161 296.626 242.96 293.974 250.554 290.722 254.896 288.864 259.243 288.272 263.903 289.098 266.67 289.587 269.489 289.837 272.134 290.816 276.107 292.274 279.74 294.532 282.805 297.45 283.442 298.034 284.129 298.56 284.858 299.025 285.101 299.183 285.494 299.145 285.815 299.126 285.882 299.118 285.979 298.826 285.984 298.651 286.007 298.302 285.988 297.951 285.929 297.606 284.557 290.903 283.142 284.21 281.818 277.509 281.499 275.892 280.734 274.553 279.812 273.262 278.691 271.698 277.595 270.092 276.389 268.577 272.984 264.315 271.409 259.333 270.742 254.046 270.161 249.518 269.513 244.98 269.955 240.382 269.991 239.504 269.934 238.624 269.784 237.757 268.932 230.59 270.359 223.752 273.09 217.202 274.786 213.134 276.419 209.098 276.976 204.693 277.123 203.826 277.373 202.979 277.72 202.171 277.893 201.726 278.173 201.188 278.562 200.986 279.094 200.713 279.511 201.19 279.764 201.66 281.002 203.982 282.342 206.262 283.419 208.659 284.496 211.056 285.302 213.565 286.217 216.028 287.579 219.654 288.706 223.327 289.026 227.228 289.295 230.558 289.875 233.864 290.094 237.193 290.485 243.19 290.019 249.08 287.792 254.78 286.064 259.181 284.449 263.634 283.649 268.351 283.379 269.936 283.11 271.478 283.353 273.042 284.123 278.025 284.45 283.094 286.034 287.949 286.52 289.441 286.627 291.053 286.934 292.607 287.092 293.466 287.303 294.314 287.565 295.147 287.714 295.46 287.991 295.693 288.324 295.786 288.622 295.774 288.893 295.608 289.038 295.348 290.552 290.897 293.754 287.559 296.534 283.949 297.621 282.54 299.014 281.477 300.443 280.435 306.826 275.776 313.189 271.096 319.533 266.394 322.074 264.497 324.362 262.282 326.341 259.803 326.968 259.021 327.973 259.288 328.287 260.329 328.544 261.145 328.908 262.05 328.817 262.868 328.319 267.388 327.968 271.947 325.376 275.947 324.624 277.105 324.129 278.464 323.687 279.798 322.139 284.421 319.432 288.203 315.787 291.411 311.43 295.252 306.759 298.674 302.055 302.051 300.061 303.483 298.032 304.871 296.002 306.257 293.896 307.69 293.643 310.509 291.641 312.038 291.068 312.477 290.995 313.237 291.14 313.978 291.678 316.734 291.857 319.49 292.863 322.202 294.138 325.636 294.642 329.347 295.637 332.897 297.387 339.13 299.102 345.378 301.748 351.316 301.808 351.45 302.004 351.538 302.154 351.614 302.453 351.769 302.661 351.594 302.74 351.118 302.768 350.945 302.737 350.766 302.749 350.593 303.047 345.34 303.807 340.124 305.018 335.004 305.843 331.515 307.476 328.445 308.912 325.256 309.294 324.459 309.825 323.742 310.477 323.143 315.51 318.408 319.658 312.983 323.171 307.046 323.647 306.315 324.222 305.653 324.88 305.08 325.03 304.937 325.62 304.997 325.808 305.193 326.823 306.189 327.622 307.358 327.837 308.793 328.381 312.44 329.143 316.072 329.084 319.785 329.025 323.349 327.705 326.645 326.63 329.962 325.824 332.475 324.776 334.903 323.501 337.213 320.585 342.426 317.81 347.709 314.487 352.706 311.113 357.771 309.254 363.417 310.263 369.694 310.516 371.245 310.969 372.756 311.612 374.189 314.081 379.807 316.715 385.335 319.588 390.755 320.362 392.325 321.302 393.809 322.391 395.18 323.503 396.54 324.445 398.031 325.195 399.619 326.662 402.651 328.528 405.404 330.449 408.14 332.37 410.876 334.207 413.649 336.158 416.353 336.966 417.479 337.375 419.016 338.98 419.416 339.351 417.851 338.167 416.79 337.668 415.525 335.919 411.105 334.384 406.642 333.927 401.864 333.641 398.885 333.139 395.92 332.999 392.939 332.789 388.561 332.783 384.168 332.784 379.783 332.784 378.753 333.114 377.702 333.377 376.689 335.122 370.264 336.883 363.843 338.662 357.425 339.411 354.712 340.208 352.021 341.053 349.35 341.232 348.871 341.594 348.482 342.058 348.268 342.721 348 342.916 348.682 343.001 349.137 343.755 353.502 345.581 357.471 347.363 361.481 349.216 365.647 350.76 369.948 351.136 374.575 351.22 375.625 351.374 376.7 351.234 377.73 350.875 380.383 351.203 383.002 351.491 385.617 351.614 386.716 351.021 388.362 352.56 388.747 353.646 389.017 354.194 387.601 354.992 386.951 355.789 386.301 356.671 385.653 357.354 384.866 359.35 382.575 361.804 380.903 364.333 379.296 367.305 377.422 370.406 375.697 372.685 372.943 373.945 371.416 375.85 371.56 377.342 370.697 378.225 370.186 378.555 370.992 379.01 371.456 379.136 371.581 379.222 371.741 379.259 371.915 379.848 375.935 380.099 379.909 377.538 383.458 377.64 382.263 377.648 381.052 377.871 379.877 378.25 377.883 378.278 375.974 377.059 373.345 376.666 376.87 376.472 379.606 375.649 382.233 375.483 382.907 375.516 383.614 375.742 384.27 375.886 384.798 376.48 384.872 376.993 384.58ZM284.587 358.401C282.513 357.989 281.503 356.185 280.17 354.878 277.544 352.3 275.175 349.466 272.567 346.874 268.802 343.173 264.215 340.416 259.18 338.83 258.259 338.53 257.004 337.635 256.253 338.544 255.159 339.869 256.88 340.645 257.455 341.532 259.076 344.029 261.02 346.317 262.622 348.821 266.038 354.172 270.461 358.68 274.726 363.307 276.253 365.008 278.075 366.42 280.103 367.474 284.959 369.867 289.83 372.297 295.206 373.42 296.742 373.737 298.282 374.057 299.831 374.309 300.118 374.358 300.463 374.12 301.022 373.933 300.17 373.184 299.435 372.514 298.65 371.893 295.622 369.498 292.478 367.234 289.575 364.705 287.505 362.898 285.361 361.032 284.434 358.264 285.22 358.139 285.742 358.598 286.252 359.085 289.165 361.856 291.946 364.799 295.283 367.103 296.406 367.881 297.205 369.179 298.741 369.317 299.105 367.536 297.697 366.533 296.863 365.374 293.492 360.683 290.073 356.014 285.334 352.53 284.496 351.912 283.851 351.038 283.073 350.331 280.199 347.727 276.832 345.858 273.475 343.979 273.391 343.932 273.155 344.063 273.055 344.17 272.972 344.28 272.952 344.425 273.002 344.553 273.307 344.982 273.635 345.393 273.985 345.786 276.573 348.647 279.092 351.566 282.082 354.041 283.423 355.152 284.82 356.336 284.587 358.401ZM338.156 373.069C338 371.679 338.223 370.184 337.135 368.34 335.469 373.416 334.703 378.744 334.872 384.083 334.884 384.189 335.189 384.402 335.245 384.371 335.528 384.235 335.969 384.05 336.001 383.832 336.08 383.161 336.089 382.483 336.028 381.81 335.887 379.655 336.329 377.693 337.841 376.064 337.733 377.98 337.822 379.88 337.487 381.818 337.086 384.398 336.949 387.012 337.079 389.62 337.329 397.17 338.661 404.596 339.724 412.194 340.604 411.25 340.904 410.309 341.11 409.284 341.345 408.089 341.646 406.908 342.012 405.747 343.393 401.388 345.573 397.323 348.439 393.761 349.234 392.822 349.637 391.613 349.564 390.385 349.288 382.49 347.932 374.671 345.534 367.144 344.587 364.152 343.731 361.114 342.829 358.101 342.73 357.765 342.709 357.379 342.524 357.107 342.348 356.833 342.062 356.65 341.741 356.603 341.511 356.615 341.089 357.02 341.108 357.212 341.347 359.543 340.578 361.724 340.174 363.946 339.692 366.535 338.963 369.044 338.855 371.698 338.81 372.148 338.391 372.606 338.156 373.069ZM231.041 300.964C233.245 302.614 234.835 304.013 236.619 305.097 242.315 308.555 248.497 310.391 255.157 309.257 258.769 308.641 262.311 307.579 265.982 307.198 266.502 307.122 267.008 306.971 267.484 306.748 271.985 304.763 276.8 303.584 281.709 303.265 282.059 303.26 282.405 303.185 282.726 303.043 283.023 302.912 283.254 302.667 283.368 302.363 283.407 302.023 283.288 301.683 283.045 301.442 276.475 296.172 269.405 292.195 260.57 292.769 259.533 292.838 258.48 292.666 257.433 292.617 254.78 292.493 252.202 292.731 249.689 293.731 243.683 296.098 237.647 298.4 231.041 300.964ZM265.82 382.522C265.21 381.951 264.892 381.499 264.455 381.267 259.319 378.6 254.666 375.093 250.688 370.891 249.85 370.006 248.933 369.2 247.948 368.483 242.815 364.807 237.473 361.523 231.532 359.227 229.719 358.529 227.778 358.392 226.045 357.536 223.007 356.032 219.632 356.003 216.397 355.357 216.061 355.357 215.744 355.514 215.541 355.783 215.38 356.004 215.407 356.395 215.425 356.708 215.465 356.88 215.566 357.031 215.71 357.133 220.609 361.165 223.738 366.793 228.42 371.072 231.125 373.542 233.691 376.006 236.792 378.068 243.095 382.261 250.159 383.046 257.309 383.519 260.048 383.704 262.864 383.276 265.823 382.521ZM308.28 453.184C309.898 453.002 310.624 453.022 311.292 452.846 318.045 450.916 324.613 448.585 330.276 444.238 332.495 442.53 334.817 440.943 336.949 439.132 338.251 437.961 339.859 437.183 341.586 436.891 342.598 436.724 343.72 436.652 344.464 435.78 344.61 435.606 344.592 434.991 344.494 434.948 343.211 434.408 341.917 433.886 340.592 433.452 337.377 432.404 334.09 431.875 330.773 432.906 328.441 433.632 326.091 434.375 323.879 435.395 313.866 439.996 304.342 445.579 294.489 450.507 293.727 450.891 292.872 451.147 292.497 452.079 292.278 452.63 292.254 452.416 295.044 453.013 299.789 454.041 304.49 452.415 308.28 453.184ZM290.135 304.242C290.167 304.828 290.233 305.411 290.331 305.989 290.391 306.327 290.55 306.64 290.789 306.887 290.953 307.012 291.444 306.926 291.62 306.757 293.039 305.454 294.536 304.208 295.78 302.747 297.132 301.136 298.644 299.665 300.292 298.357 304.837 294.795 309.293 291.112 313.878 287.601 320.424 282.586 323.839 275.984 324.23 267.796 324.253 267.326 323.92 266.837 323.753 266.354 323.329 266.571 322.842 266.716 322.49 267.017 318.621 270.335 314.42 273.203 310.33 276.233 305.833 279.554 301.164 282.717 297.322 286.879 292.624 291.991 290.159 297.957 290.135 304.242ZM308.584 359.933C309.508 356.799 310.629 354.037 312.367 351.702 315.315 347.732 317.681 343.425 320.301 339.265 324.44 332.703 326.453 325.524 326.592 317.831 326.634 315.391 326.108 312.941 325.803 310.497 325.768 310.188 325.456 309.913 325.288 309.622 324.885 309.924 324.35 310.147 324.108 310.549 323.754 311.135 323.65 311.867 323.364 312.505 321.352 317.006 319.157 321.364 315.217 324.605 314.173 325.466 313.492 326.798 312.754 327.979 311.931 329.322 311.47 330.94 310.46 332.104 307.766 335.177 306.652 338.727 306.531 342.711 306.537 343.239 306.488 343.767 306.383 344.285 305.454 347.971 306.044 351.625 306.564 355.284 306.783 356.994 307.484 358.606 308.584 359.933ZM342.94 421.571C343.496 421.03 343.973 420.74 344.207 420.319 346.167 416.803 348.662 413.614 351.604 410.866 354.019 408.579 356.501 406.374 358.87 404.044 361.124 401.842 363.31 399.639 365.836 397.714 368.363 395.789 370.081 393.174 371.406 390.198 372.978 386.642 373.638 382.839 374.831 379.191 374.922 378.849 374.918 378.489 374.821 378.15 374.709 377.848 374.538 377.572 374.316 377.339 374.148 377.364 373.991 377.441 373.868 377.558 370.454 381.321 367.12 385.187 362.615 387.701 354.852 392.03 349.445 398.61 345.142 406.142 342.451 410.817 341.843 415.989 342.939 421.566ZM256.713 434.7C256.884 434.715 257.057 434.706 257.226 434.674 262.718 432.845 267.909 430.21 272.626 426.854 277.286 423.515 280.212 419.17 280.98 413.463 281.583 409.002 283.853 405.238 285.88 401.367 286.439 400.299 287.704 399.672 287.767 398.305 286.366 397.795 285 398.472 283.925 398.981 280.618 400.555 277.262 402.19 274.717 404.937 270.526 409.469 266.672 414.224 264.863 420.316 264.267 422.331 263.198 424.13 261.88 425.835 259.856 428.453 258.107 431.283 256.252 434.028 256.18 434.162 256.178 434.324 256.247 434.46 256.351 434.583 256.556 434.625 256.713 434.7ZM279.356 267.743C279.214 261.755 280.21 256.608 281.44 251.502 282.833 245.713 284.287 239.937 285.804 234.174 286.619 231.078 287.13 227.998 286.54 224.798 285.503 219.177 282.892 214.255 279.681 209.605 279.554 209.485 279.375 209.439 279.206 209.484 278.979 209.645 278.664 209.88 278.645 210.11 278.426 212.728 278.431 215.375 278.031 217.963 277.316 222.631 276.941 227.351 276.307 232.038 275.853 235.369 276.731 238.701 275.798 241.982 274.865 245.264 275.418 248.632 275.731 251.923 276.205 257.08 276.75 262.282 279.356 267.743ZM328.373 431.474C327.511 430.804 326.44 430.459 325.349 430.501 321.078 430.564 317.084 431.381 313.314 433.677 308.149 436.816 303.935 441.069 299.285 444.806 299.153 444.923 299.049 445.069 298.981 445.232 298.934 445.339 298.912 445.521 298.977 445.596 299.089 445.718 299.324 445.881 299.417 445.828 301.801 444.716 304.316 443.811 306.526 442.422 313.382 438.121 321.026 435.444 328.373 431.474ZM275.332 260.365C275.286 257.194 274.41 254.656 274.319 252.115 274.178 247.774 273.73 243.451 274.26 239.04 275.03 232.477 274.91 225.813 276.074 219.27 276.123 218.983 275.863 218.648 275.744 218.335 275.501 218.531 275.149 218.683 275.033 218.927 272.596 224.162 271.458 229.908 271.714 235.676 271.761 236.724 272.049 237.79 271.928 238.812 271.198 245.005 272.617 251.002 273.456 257.053 273.58 258.129 274.121 259.009 275.332 260.365ZM281.91 265.584C283.287 264.021 283.555 262.124 284.166 260.388 284.687 258.907 284.945 257.293 285.656 255.926 288.37 250.794 288.18 245.088 288.997 239.592 289.208 238.16 289.016 236.523 288.062 234.698 287.68 235.383 287.325 235.808 287.188 236.297 284.888 244.362 282.915 252.499 281.578 260.788 281.289 262.389 281.403 264.038 281.91 265.584ZM288.809 402.649C289.05 402.29 289.009 401.92 288.621 401.825 288.31 401.785 287.999 401.896 287.784 402.125 286.924 403.446 286.06 404.774 285.318 406.167 283.99 408.664 283.275 411.381 282.726 414.14 282.623 414.653 282.522 415.205 283.063 415.51 283.155 415.559 283.62 415.11 283.788 414.818 285.98 410.987 287.319 406.815 288.809 402.649ZM356.614 388.506C361.706 386.603 364.927 383.741 368.187 380.944 368.311 380.818 368.391 380.656 368.417 380.482 368.434 380.344 368.393 380.205 368.304 380.098 368.195 379.986 367.953 379.836 367.882 379.88 365.387 381.459 362.845 382.98 360.443 384.686 359.256 385.529 358.346 386.749 356.614 388.506ZM335.269 386.717C334.065 390.321 333.702 393.483 335.434 397.749 334.956 393.491 335.943 390.339 335.269 386.717ZM233.804 306.086C233.381 305.179 230.959 303.502 229.309 303.003 229.213 302.974 229.023 303.136 228.932 303.251 228.84 303.365 228.765 303.576 228.818 303.646 229.851 305.014 231.298 306.013 232.943 306.495 233.104 306.524 233.27 306.495 233.412 306.414 233.556 306.321 233.687 306.211 233.804 306.086Z" fill="#FFFFFF"/><path d="M260.033 424.001 258.572 427.071C256.932 427.511 256.315 429.07 255.281 430.169 254.473 431.026 253.856 432.151 252.443 432.132L252.365 432.062C253.806 429.171 256.052 426.9 258.159 424.523 258.675 423.947 259.355 423.989 260.033 424.001Z" fill="#FFFFFF"/></g></g></g></g></svg>