<svg width="375" height="248" xmlns="http://www.w3.org/2000/svg" xmlns:xlink="http://www.w3.org/1999/xlink" overflow="hidden"><defs><clipPath id="clip0"><rect x="180" y="672" width="375" height="248"/></clipPath><clipPath id="clip1"><rect x="180" y="673" width="374" height="246"/></clipPath><clipPath id="clip2"><rect x="180" y="673" width="374" height="246"/></clipPath><clipPath id="clip3"><rect x="180" y="673" width="374" height="246"/></clipPath></defs><g clip-path="url(#clip0)" transform="translate(-180 -672)"><g clip-path="url(#clip1)"><g clip-path="url(#clip2)"><g clip-path="url(#clip3)"><path d="M150.51 141.149C150.51 140.645 150.369 138.082 147.635 138.082 144.901 138.082 144.77 140.645 144.77 141.169 144.77 142.027 145.043 142.834 145.507 143.388 146.001 143.963 146.697 144.236 147.635 144.236 150.369 144.236 150.51 141.673 150.51 141.149ZM155.342 136.176C156.219 137.679 156.663 139.414 156.663 141.149 156.663 142.894 156.219 144.639 155.342 146.132 153.909 148.603 151.317 150.399 147.635 150.399 141.714 150.399 138.607 145.759 138.607 141.169 138.607 138.809 139.404 136.59 140.836 134.925 141.744 133.866 142.874 133.099 144.155 132.595 145.224 132.171 146.394 131.919 147.635 131.919 148.613 131.919 149.491 132.091 150.308 132.323 152.588 132.958 154.292 134.37 155.342 136.176ZM269.366 122.115C269.286 121.661 268.953 120.561 267.5 120.077L264.171 118.957C260.52 117.727 258.069 114.408 258.069 110.676 258.069 108.184 255.85 106.157 253.106 106.157L183.424 106.157C180.69 106.157 178.471 108.184 178.471 110.676L178.471 139.928C178.471 142.4 180.67 144.407 183.384 144.407L253.156 144.407C255.87 144.407 258.069 142.4 258.069 139.928L258.069 136.711C258.069 134.058 259.289 131.586 261.428 129.902L268.398 124.455C269.487 123.607 269.437 122.538 269.366 122.115ZM275.439 121.076C275.973 124.213 274.763 127.289 272.191 129.297L265.231 134.754C264.595 135.248 264.232 135.964 264.232 136.711L264.232 139.928C264.232 145.789 259.259 150.57 253.156 150.57L183.384 150.57C177.281 150.57 172.308 145.789 172.308 139.928L172.308 110.676C172.308 104.795 177.291 100.004 183.424 100.004L253.106 100.004C259.249 100.004 264.232 104.795 264.232 110.676 264.232 111.755 264.988 112.734 266.128 113.117L269.467 114.237C272.604 115.286 274.894 117.908 275.439 121.076ZM175.98 78.1449 249.323 78.1449C252.258 78.1449 254.639 75.966 254.639 73.2829L254.639 42.5474C254.639 39.8441 252.238 37.635 249.283 37.635L176.03 37.635C173.075 37.635 170.664 39.8441 170.664 42.5474 170.664 46.3906 168.122 49.8303 164.349 51.0912L160.849 52.2714C159.255 52.806 158.882 54.0367 158.791 54.541 158.62 55.5296 159.013 56.4777 159.861 57.1435L167.184 62.8831C169.393 64.608 170.664 67.16 170.664 69.9037L170.664 73.2829C170.664 75.966 173.044 78.1449 175.98 78.1449ZM175.98 84.3081C169.655 84.3081 164.501 79.3654 164.501 73.2829L164.501 69.9037C164.501 69.0765 164.097 68.2797 163.391 67.7249L156.058 61.9954C153.415 59.9174 152.164 56.74 152.719 53.492 153.284 50.2237 155.644 47.5204 158.892 46.431L162.392 45.2508C163.653 44.8372 164.501 43.7478 164.501 42.5474 164.501 36.4447 169.675 31.4819 176.03 31.4819L249.283 31.4819C255.628 31.4819 260.802 36.4447 260.802 42.5474L260.802 73.2829C260.802 79.3654 255.658 84.3081 249.323 84.3081ZM119.119 143.388C119.603 143.963 120.299 144.236 121.237 144.236 123.971 144.236 124.112 141.673 124.112 141.149 124.112 140.645 123.971 138.082 121.237 138.082 118.513 138.082 118.372 140.645 118.372 141.169 118.372 142.027 118.645 142.834 119.119 143.388ZM121.237 131.919C122.387 131.919 123.386 132.141 124.324 132.454 128.217 133.755 130.265 137.447 130.265 141.149 130.265 145.749 127.168 150.399 121.237 150.399 115.316 150.399 112.209 145.759 112.209 141.169 112.209 138.809 113.006 136.59 114.438 134.925 115.437 133.765 116.718 132.958 118.16 132.464 119.129 132.141 120.148 131.919 121.237 131.919ZM118.16 123.597 118.16 132.464C119.129 132.141 120.148 131.919 121.237 131.919 122.387 131.919 123.386 132.141 124.324 132.454L124.324 123.597C124.324 118.967 128.086 115.205 132.716 115.205L135.762 115.205C140.382 115.205 144.155 118.967 144.155 123.597L144.155 132.595C145.224 132.171 146.394 131.919 147.635 131.919 148.613 131.919 149.491 132.091 150.308 132.323L150.308 123.597C150.308 116.103 144.599 109.99 137.316 109.203 136.791 109.143 136.287 109.042 135.762 109.042L132.716 109.042C132.182 109.042 131.677 109.143 131.153 109.203 123.87 109.99 118.16 116.103 118.16 123.597ZM337.838 106.621C337.838 92.9023 326.671 81.746 312.953 81.746 299.234 81.746 288.078 92.9023 288.078 106.621 288.078 120.339 299.234 131.506 312.953 131.506 326.671 131.506 337.838 120.339 337.838 106.621ZM297.64 79.7991C302.18 77.1866 307.354 75.5827 312.953 75.5827 330.07 75.5827 344.001 89.513 344.001 106.621 344.001 117.293 338.584 126.714 330.363 132.303 325.39 135.682 319.398 137.669 312.953 137.669 306.477 137.669 300.455 135.651 295.472 132.242 293.918 131.173 292.456 129.972 291.124 128.651 285.445 123.022 281.925 115.225 281.925 106.621 281.925 97.8652 285.596 89.9871 291.447 84.3383 293.293 82.5529 295.401 81.0802 297.64 79.7991ZM101.799 70.8216C115.518 70.8216 126.674 59.6552 126.674 45.9367 126.674 32.2182 115.518 21.0619 101.799 21.0619 88.0807 21.0619 76.9142 32.2182 76.9142 45.9367 76.9142 59.6552 88.0807 70.8216 101.799 70.8216ZM77.116 64.5474C73.182 59.3425 70.7611 52.9473 70.7611 45.9367 70.7611 28.8189 84.6813 14.8987 101.799 14.8987 118.917 14.8987 132.837 28.8189 132.837 45.9367 132.837 52.8464 130.487 59.1811 126.654 64.3457 125.373 66.0605 123.92 67.6139 122.326 69.0362 122.084 69.2581 121.812 69.4599 121.56 69.6717 119.26 71.5882 116.768 73.2728 113.994 74.4731 110.242 76.077 106.127 76.9748 101.799 76.9748 97.6735 76.9748 93.7395 76.1274 90.1384 74.6648 87.425 73.5552 84.9738 72.0119 82.7042 70.2265 82.2806 69.8936 81.867 69.5506 81.4635 69.1976 79.8597 67.7955 78.397 66.2522 77.116 64.5474ZM77.9532 133.029C77.9532 129.135 74.7859 125.968 70.8821 125.968 66.9885 125.968 63.8111 129.135 63.8111 133.029 63.8111 136.933 66.9885 140.11 70.8821 140.11 74.7859 140.11 77.9532 136.933 77.9532 133.029ZM70.8821 119.805C71.9514 119.805 72.9702 119.966 73.9688 120.198 79.779 121.6 84.1164 126.805 84.1164 133.029 84.1164 140.332 78.1852 146.263 70.8821 146.263 63.5892 146.263 57.6579 140.332 57.6579 133.029 57.6579 126.805 61.9954 121.6 67.8056 120.198 68.8042 119.966 69.823 119.805 70.8821 119.805ZM71.0133 72.1228 72.143 74.221 73.9688 73.2425 76.2384 72.0119 81.4635 69.1976C79.8597 67.7955 78.397 66.2522 77.116 64.5474L73.7368 66.3631 69.2178 68.8042ZM122.326 69.0362 129.418 72.6978 131.153 73.5956 131.153 109.203C131.677 109.143 132.182 109.042 132.716 109.042L135.762 109.042C136.287 109.042 136.791 109.143 137.316 109.203L137.316 69.8331 131.95 67.0692 126.654 64.3457C125.373 66.0605 123.92 67.6139 122.326 69.0362ZM70.8821 119.805C71.9514 119.805 72.9702 119.966 73.9688 120.198L73.9688 73.2425 72.143 74.221 71.0133 72.1228 67.8056 72.1228 67.8056 120.198C68.8042 119.966 69.823 119.805 70.8821 119.805ZM104.876 171.35 104.876 132.424C104.876 130.719 103.494 129.347 101.789 129.347 100.094 129.347 98.7125 130.719 98.7125 132.424L98.7125 171.35C98.7125 171.4 98.7327 171.43 98.7327 171.471 98.8033 173.115 100.135 174.436 101.789 174.436 103.453 174.436 104.785 173.115 104.845 171.471 104.845 171.43 104.876 171.4 104.876 171.35ZM98.7125 135.379 98.7125 132.424C98.7125 130.719 100.094 129.347 101.789 129.347 103.494 129.347 104.876 130.719 104.876 132.424L104.876 135.45 121.308 70.6804 121.56 69.6717C119.26 71.5882 116.768 73.2728 113.994 74.4731L101.85 122.326 90.1384 74.6648C87.425 73.5552 84.9738 72.0119 82.7042 70.2265L82.8051 70.63ZM298.185 138.264C276.457 138.264 258.775 155.947 258.775 177.684L258.775 223.49C258.775 232.306 265.937 239.468 274.743 239.468L349.72 239.468C358.526 239.468 365.688 232.306 365.688 223.49L365.688 177.684C365.688 155.947 348.005 138.264 326.278 138.264ZM371.851 177.684 371.851 223.49C371.851 235.695 361.926 245.631 349.72 245.631L274.743 245.631C262.578 245.631 252.692 235.766 252.622 223.611 252.622 223.571 252.612 223.53 252.612 223.49L252.612 177.684C252.612 177.644 252.612 177.604 252.612 177.574 252.622 175.475 252.813 173.428 253.096 171.41 253.106 171.35 253.116 171.279 253.126 171.219 255.94 151.468 271.434 135.803 291.094 132.706 292.536 132.484 293.989 132.323 295.472 132.242 300.455 135.651 306.477 137.669 312.953 137.669 319.398 137.669 325.39 135.682 330.363 132.303 353.584 134.381 371.851 153.919 371.851 177.684ZM82.7042 70.2265C82.2806 69.8936 81.867 69.5506 81.4635 69.1976L76.2384 72.0119C78.3567 71.3562 80.5557 70.9124 82.8051 70.63ZM129.418 72.6978 122.326 69.0362C122.084 69.2581 121.812 69.4599 121.56 69.6717L121.308 70.6804C124.122 71.0637 126.825 71.7496 129.418 72.6978ZM45.3416 177.634 158.428 177.634C158.529 177.634 158.62 177.584 158.721 177.574 160.274 177.412 161.505 176.151 161.505 174.547L161.505 109.677C161.505 90.199 149.188 73.5754 131.95 67.0692L137.316 69.8331 137.316 76.6217C148.149 83.6524 155.342 95.8276 155.342 109.677L155.342 136.176C156.219 137.679 156.663 139.414 156.663 141.149 156.663 142.894 156.219 144.639 155.342 146.132L155.342 171.471 104.845 171.471C104.785 173.115 103.453 174.436 101.789 174.436 100.135 174.436 98.8033 173.115 98.7327 171.471L48.4181 171.471 48.4181 109.677C48.4181 95.2627 56.2256 82.6639 67.8056 75.7946L67.8056 72.1228 71.0133 72.1228 69.2178 68.8042 73.7368 66.3631C55.4892 72.3246 42.265 89.4727 42.265 109.677L42.265 174.547C42.265 176.151 43.4855 177.412 45.049 177.574 45.1499 177.584 45.2407 177.634 45.3416 177.634ZM161.505 174.547C161.505 176.151 160.274 177.412 158.721 177.574L252.612 177.574C252.622 175.475 252.813 173.428 253.096 171.41L161.505 171.41ZM252.612 217.458 17.8138 217.458C13.3352 217.458 9.46171 215.077 7.4342 211.083 5.40669 207.098 5.77991 202.559 8.42274 198.948L24.0477 177.574 45.049 177.574C43.4855 177.412 42.265 176.151 42.265 174.547L42.265 171.41 22.4842 171.41C21.5057 171.41 20.5777 171.884 20.0027 172.671L19.105 173.902 3.44979 195.317C-0.534616 200.754-1.10958 207.865 1.93673 213.867 4.99312 219.879 11.0756 223.611 17.8138 223.611L252.622 223.611C252.622 223.571 252.612 223.53 252.612 223.49ZM161.505 171.41 253.096 171.41C253.106 171.35 253.116 171.279 253.126 171.219L161.505 171.32ZM291.124 128.651 291.094 132.706C292.536 132.484 293.989 132.323 295.472 132.242 293.918 131.173 292.456 129.972 291.124 128.651ZM20.0027 172.671 19.105 173.902 16.9564 21.7781C16.9564 9.74415 26.7107-0.0100871 38.7043-0.0100871L276.316-0.0100871C288.3-0.0100871 298.054 9.74415 298.054 21.7276L297.64 79.7991C295.401 81.0802 293.293 82.5529 291.447 84.3383L291.901 21.7075C291.901 13.1435 284.91 6.15314 276.316 6.15314L38.7043 6.15314C30.11 6.15314 23.1197 13.1435 23.1197 21.7276L25.238 171.41 22.4842 171.41C21.5057 171.41 20.5777 171.884 20.0027 172.671" fill="#FFFFFF" transform="matrix(1.00299 0 0 1 181.036 673.212)"/></g></g></g></g></svg>